<?xml version="1.0" standalone="no"?>
<!DOCTYPE svg PUBLIC "-//W3C//DTD SVG 20010904//EN"
 "http://www.w3.org/TR/2001/REC-SVG-20010904/DTD/svg10.dtd">
<svg version="1.0" xmlns="http://www.w3.org/2000/svg"
 width="512.000000pt" height="512.000000pt" viewBox="0 0 512.000000 512.000000"
 preserveAspectRatio="xMidYMid meet">

<g transform="translate(0.000000,512.000000) scale(0.100000,-0.100000)"
fill="#000000" stroke="none">
<path d="M1205 4471 c-35 -9 -100 -43 -132 -68 -12 -10 -97 -108 -188 -218
-112 -135 -177 -224 -203 -274 l-37 -75 -3 -1400 c-2 -1048 0 -1415 9 -1456
33 -155 157 -285 313 -326 42 -11 318 -14 1588 -14 1087 0 1553 3 1590 11 160
34 297 173 328 334 8 44 10 440 8 1455 l-3 1395 -35 72 c-25 51 -88 136 -211
286 -159 192 -183 216 -240 247 l-64 35 -1345 2 c-740 0 -1358 -2 -1375 -6z
m2718 -305 c53 -58 97 -107 97 -110 0 -3 -657 -6 -1460 -6 -803 0 -1460 3
-1460 6 0 3 39 53 86 110 l85 104 1277 0 1277 0 98 -104z m-935 -1393 l2 -213
373 0 372 0 -588 -587 -587 -588 -587 588 -588 587 373 0 372 0 0 208 c0 115
3 212 7 215 3 4 196 6 427 5 l421 -3 3 -212z"/>
</g>
</svg>
