<?xml version="1.0" standalone="no"?>
<!DOCTYPE svg PUBLIC "-//W3C//DTD SVG 20010904//EN"
 "http://www.w3.org/TR/2001/REC-SVG-20010904/DTD/svg10.dtd">
<svg version="1.0" xmlns="http://www.w3.org/2000/svg"
 width="512.000000pt" height="512.000000pt" viewBox="0 0 512.000000 512.000000"
 preserveAspectRatio="xMidYMid meet">

<g transform="translate(0.000000,512.000000) scale(0.100000,-0.100000)"
fill="#000000" stroke="none">
<path d="M3565 4451 c-25 -12 -126 -106 -275 -255 l-235 -236 453 -452 452
-453 236 235 c149 149 243 250 255 275 25 53 25 135 0 183 -24 46 -664 684
-708 706 -43 22 -128 20 -178 -3z"/>
<path d="M1692 2597 l-1052 -1052 0 -453 0 -452 453 0 452 0 1055 1055 1055
1055 -450 450 c-247 247 -452 450 -455 450 -3 0 -479 -474 -1058 -1053z"/>
</g>
</svg>
